<svg xmlns="http://www.w3.org/2000/svg" viewBox="0 0 512 512" role="img" aria-labelledby="title desc">
  <title id="title">Xtreme Download Manager</title>
  <desc id="desc">A blue download arrow entering a green tray on a dark rounded-square background.</desc>
  <rect width="512" height="512" rx="112" fill="#111827"/>
  <path d="M224 112C224 94 238 80 256 80C274 80 288 94 288 112V250L336 202C348 190 368 190 380 202C392 214 392 234 380 246L279 347C266 360 246 360 233 347L132 246C120 234 120 214 132 202C144 190 164 190 176 202L224 250Z" fill="#4F8CFF"/>
  <path d="M112 352C112 334 126 320 144 320H190L226 356C243 373 269 373 286 356L322 320H368C386 320 400 334 400 352V384C400 410 378 432 352 432H160C134 432 112 410 112 384Z" fill="#34D399"/>
</svg>
